<svg xmlns="http://www.w3.org/2000/svg" width="70" height="70">
    <path fill="#099" fill-rule="evenodd" d="M34.999 69.999c-19.33 0-35-15.67-35-34.999 0-19.331 15.67-35.001 35-35.001s35 15.67 35 35.001c0 19.329-15.67 34.999-35 34.999zm5.805-49.175c0-.833-.675-1.51-1.509-1.51h-.717c-.192-1.818-1.712-3.24-3.58-3.24-1.866 0-3.385 1.422-3.577 3.24h-.717c-.834 0-1.51.677-1.51 1.51v2.522h11.61v-2.522zm9.251 3.93c0-2.595-2.11-4.705-4.705-4.705h-.567v4.903H25.492v-4.903h-.844c-2.595 0-4.705 2.11-4.705 4.705V49.22c0 2.595 2.11 4.705 4.705 4.705H45.35c2.595 0 4.705-2.11 4.705-4.705V24.754zm-4.602 21.823H24.441c-.52 0-.942-.42-.942-.94s.422-.942.942-.942h21.012c.52 0 .941.422.941.942s-.421.94-.941.94zm-.116-8.864h-12.85c-.52 0-.941-.42-.941-.94s.421-.942.941-.942h12.85c.521 0 .941.422.941.942s-.42.94-.941.94zm-17.973-.718c-.159.229-.413.376-.693.401-.027.002-.053.004-.08.004-.25 0-.492-.1-.669-.28l-1.691-1.713c-.366-.371-.362-.967.007-1.331.372-.367.967-.36 1.331.008l.895.906 2.068-2.983c.297-.428.882-.531 1.31-.237.427.296.533.882.237 1.31l-2.715 3.915z"/>
</svg>
