<svg xmlns="http://www.w3.org/2000/svg" width="70" height="70">
    <path fill="#774D94" fill-rule="evenodd" d="M35 0C15.67 0 0 15.67 0 35s15.67 35 35 35 35-15.67 35-35S54.33 0 35 0zM10.09 50.008V21.753h2.723l-.08 25.577s8.168.635 17.297 5.355c-5.525-2.818-19.94-2.677-19.94-2.677zm4.004-3.734V19.217h2.723l-.4 25.506s7.607 1.198 14.174 6.624c0 0-8.569-4.58-16.497-5.073zm19.861 6.623s-5.286-7.962-15.857-9.089V17.103s7.768 1.127 15.857 9.653v26.141zm2.091 0V26.756c8.087-8.526 15.855-9.653 15.855-9.653v26.705c-10.57 1.127-15.855 9.089-15.855 9.089zm17.537-8.174l-.4-25.506h2.722v27.057c-7.928.493-16.496 5.073-16.496 5.073 6.566-5.426 14.174-6.624 14.174-6.624zm-13.614 7.962c9.13-4.72 17.298-5.355 17.298-5.355l-.08-25.577h2.723v28.255s-14.415-.141-19.941 2.677z"/>
</svg>
