<svg xmlns="http://www.w3.org/2000/svg" width="70" height="70">
    <path fill="#C6C" fill-rule="evenodd" d="M34.999 70c-19.33 0-35-15.671-35-35 0-19.331 15.67-35.001 35-35.001s35 15.67 35 35.001c0 19.329-15.67 35-35 35zm17.799-46.426c0-1.106-.895-2.001-1.999-2.001H44.88v-3.189c0-.828-.671-1.5-1.5-1.5-.828 0-1.5.672-1.5 1.5v3.189H28.118v-3.189c0-.828-.671-1.5-1.5-1.5-.828 0-1.5.672-1.5 1.5v3.189h-5.919c-1.104 0-1.999.895-1.999 2.001v2.921h35.598v-2.921zm0 5.921H17.2v21.619c0 1.105.895 2 1.999 2h31.6c1.104 0 1.999-.895 1.999-2V29.495zm-9.417 14.221h4.189v4.011h-4.189v-4.011zm0-8.029h4.189v4.012h-4.189v-4.012zm-10.475 8.029h4.187v4.011h-4.187v-4.011zm0-8.029h4.187v4.012h-4.187v-4.012zm-10.478 8.029h4.189v4.011h-4.189v-4.011zm0-8.029h4.189v4.012h-4.189v-4.012z"/>
</svg>
