<svg xmlns="http://www.w3.org/2000/svg" width="70" height="70">
    <path fill="#06C" fill-rule="evenodd" d="M35 69.999C15.669 69.999-.001 54.329-.001 35-.001 15.669 15.669-.001 35-.001c19.329 0 34.999 15.67 34.999 35.001 0 19.329-15.67 34.999-34.999 34.999zm-2.722-24.107c-.164.265-.356.539-.576.821-.182.233-.379.465-.594.696-.526.582-1.145 1.148-1.857 1.696-.3.232-.636.475-1.009.729-.283.193-.636.428-1.06.704v2.553h9.065v-2.765h-4.359c.3-.254.546-.472.738-.653.277-.249.525-.48.746-.695.548-.537 1.006-1.049 1.374-1.535.446-.587.785-1.17 1.017-1.746.266-.65.399-1.307.399-1.968 0-.486-.111-.978-.331-1.475-.357-.747-.916-1.317-1.679-1.713-.695-.361-1.484-.542-2.366-.542-.814 0-1.56.158-2.238.474-.729.345-1.303.839-1.721 1.484-.283.436-.481.907-.594 1.416-.097.402-.153.913-.169 1.535h3.128c.029-.593.133-1.052.314-1.374.243-.435.63-.652 1.162-.652.809 0 1.213.414 1.213 1.246 0 .514-.202 1.102-.603 1.764zM11.913 19.707L8.091 38.253l4.816-.179-.472 12.323 10.001-16.806-5.48-.202 5.677-13.06-10.72-.622zm23.948 6.479h-4.358c.299-.255.546-.473.738-.654.277-.249.525-.48.745-.695.549-.537 1.007-1.048 1.374-1.534.447-.588.786-1.171 1.018-1.748.266-.649.398-1.305.398-1.966 0-.487-.11-.978-.33-1.475-.357-.747-.916-1.318-1.68-1.714-.694-.362-1.483-.543-2.365-.543-.814 0-1.561.159-2.238.475-.73.346-1.303.84-1.722 1.484-.282.436-.48.907-.593 1.416-.096.402-.152.913-.17 1.535h3.129c.028-.594.133-1.051.313-1.374.244-.435.631-.653 1.162-.653.809 0 1.213.416 1.213 1.247 0 .514-.201 1.102-.602 1.764-.164.266-.357.539-.577.823-.181.232-.379.462-.593.695-.526.582-1.145 1.147-1.857 1.695-.3.232-.636.475-1.009.729-.282.193-.636.427-1.06.704v2.552h9.064v-2.763zm10.727 0h-4.359c.3-.255.545-.473.738-.654.277-.249.525-.48.746-.695.548-.537 1.006-1.048 1.374-1.534.445-.588.785-1.171 1.017-1.748.265-.649.399-1.305.399-1.966 0-.487-.111-.978-.331-1.475-.356-.747-.916-1.318-1.679-1.714-.696-.362-1.484-.543-2.366-.543-.814 0-1.56.159-2.238.475-.729.346-1.304.84-1.721 1.484-.283.436-.481.907-.594 1.416-.097.402-.153.913-.17 1.535h3.129c.029-.594.133-1.051.314-1.374.243-.435.63-.653 1.161-.653.809 0 1.213.416 1.213 1.247 0 .514-.201 1.102-.602 1.764-.164.266-.356.539-.577.823-.181.232-.378.462-.593.695-.526.582-1.145 1.147-1.857 1.695-.3.232-.636.475-1.009.729-.283.193-.636.427-1.06.704v2.552h9.065v-2.763zm.467 7.821H34.389v1h12.666v-1zm.452 14.258h-1.425v-8.03H43.03l-5.749 8.2v2.399h5.664v2.257h3.137v-2.257h1.425v-2.569zm9.823-25.183c-.005-.181-.011-.339-.016-.474-.012-.345-.043-.645-.094-.899-.119-.64-.385-1.196-.797-1.671-.605-.707-1.478-1.06-2.62-1.06-.537 0-1.009.09-1.416.271-.475.209-.83.527-1.069.95h-.033v-4.104h-2.883v12.854h2.883v-5.35c0-.599.112-1.054.338-1.364.266-.362.691-.543 1.273-.543.576 0 .992.206 1.246.618.204.328.305.795.305 1.399v5.24h2.883v-5.867zm.386 24.14l-.017-.474c-.012-.345-.043-.644-.094-.899-.119-.638-.384-1.195-.797-1.671-.605-.706-1.478-1.06-2.62-1.06-.537 0-1.009.091-1.416.272-.474.209-.83.526-1.068.949h-.034v-4.104h-2.883v12.856h2.883v-5.352c0-.598.113-1.054.339-1.365.265-.361.69-.542 1.272-.542.577 0 .992.206 1.247.619.203.328.304.795.304 1.399v5.241h2.884v-5.869zm-14.602-2.984h.034v4.027h-2.569l2.535-4.027z"/>
</svg>
