<svg xmlns="http://www.w3.org/2000/svg" width="70" height="70">
    <path fill="#336E51" fill-rule="evenodd" d="M35 69.999c-19.331 0-35-15.67-35-35s15.669-35 35-35c19.329 0 34.999 15.67 34.999 35s-15.67 35-34.999 35zm-3.09-17.656c.997 1.279 2.396 1.919 4.196 1.919 1.345 0 2.65-.401 3.915-1.204 1.185-.759 2.19-1.778 3.015-3.058h-3.774c-.781.767-1.612 1.149-2.495 1.149-1.691 0-2.486-.777-2.385-2.331h9.239c.116-.296.213-.621.293-.976.397-1.88.123-3.466-.824-4.76-.969-1.316-2.386-1.974-4.251-1.974-1.793 0-3.463.658-5.01 1.974-1.525 1.294-2.48 2.845-2.863 4.652-.383 1.8-.069 3.336.944 4.609zm-5.975 1.518l1.442-6.778c.188-.875.6-1.485 1.236-1.832.477-.26 1.193-.405 2.147-.435l.792-3.708c-1.468 0-2.617.579-3.448 1.735h-.055l.282-1.312h-3.459l-2.624 12.33h3.687zm-9.716 0l1.334-6.268h4.771l.781-3.687h-4.772l.596-2.798h4.945l.781-3.687h-8.968l-3.491 16.44h4.023zM29.43 16.257l-1.995 10.291-.054.043-4.165-10.334h-3.621l-.272 1.278-7.693 1.318h7.413l-.371 1.748-11.188 1.631h10.841l-.367 1.729-14.815 1.8h14.433l-1.473 6.935h4.023l2.006-9.976.054-.022 4.132 9.998h3.643l3.492-16.439H29.43zm14.361 5.867c-.99-1.258-2.349-1.887-4.077-1.887-1.757 0-3.391.64-4.902 1.92-1.496 1.264-2.432 2.779-2.808 4.543-.361 1.706-.047 3.181.943 4.424.991 1.244 2.343 1.865 4.056 1.865 1.742 0 3.372-.629 4.891-1.886 1.518-1.251 2.462-2.748 2.83-4.489.368-1.736.058-3.233-.933-4.49zm2.465 30.219c.998 1.279 2.397 1.919 4.196 1.919 1.346 0 2.651-.401 3.915-1.204 1.185-.759 2.191-1.778 3.015-3.058h-3.774c-.781.767-1.612 1.149-2.494 1.149-1.691 0-2.487-.777-2.385-2.331h9.239c.115-.296.213-.621.292-.976.398-1.88.123-3.466-.824-4.76-.968-1.316-2.385-1.974-4.25-1.974-1.794 0-3.463.658-5.01 1.974-1.526 1.294-2.48 2.845-2.863 4.652-.384 1.8-.069 3.336.943 4.609zm10.498-24.309h-.043l-.423-7.667h-3.101l-3.655 7.667h-.044l-.216-7.667h-3.817l1.149 12.329h3.427l3.763-7.969h.043l.368 7.969h3.417l6.397-12.329h-3.795l-3.47 7.667zm-4.208 16.187c1.561 0 2.342.704 2.342 2.114h-5.595c.607-1.41 1.691-2.114 3.253-2.114zM41.091 30.094c-1.142.998-2.4 1.497-3.773 1.497-1.331 0-2.361-.488-3.091-1.465-.73-.968-.951-2.117-.662-3.448.29-1.366.994-2.541 2.115-3.524 1.142-1.012 2.393-1.518 3.752-1.518 1.323 0 2.353.488 3.091 1.463.722.97.943 2.119.661 3.449-.296 1.388-.994 2.57-2.093 3.546zm.949-5.728c-.163-.156-.421-.149-.577.014l-3.221 3.375-.018-.001c-.041 0-.08.005-.118.012l-2.696-2.037c-.178-.134-.434-.1-.57.081-.136.178-.101.435.079.571l2.696 2.036c.026.314.288.561.609.561.338 0 .612-.274.612-.612l-.003-.048 3.221-3.375c.155-.164.149-.421-.014-.577zm-3.841 19.855c1.561 0 2.343.704 2.343 2.114h-5.596c.607-1.41 1.691-2.114 3.253-2.114z"/>
</svg>
