<svg xmlns="http://www.w3.org/2000/svg" width="70" height="70">
    <path fill="#049853" fill-rule="evenodd" d="M34.996 69.994c-19.33 0-35-15.671-35-35 0-19.331 15.67-35 35-35 19.329 0 35 15.669 35 35 0 19.329-15.671 35-35 35zM47.149 45.85c.563-2.459-.523-3.561-1.498-4.534.187 2.275-.349 4.827-.752 6.319.995.032 1.791-.744 2.25-1.785zm-19.603 1.744c1.301 4.365 4.112 7.902 7.923 7.902 3.815 0 6.626-3.537 7.929-7.902.498-1.667.77-3.443.802-5.19.011-.665-.011-1.322-.073-1.969-.049-.039-.1-.076-.152-.113-1.603-1.141-3.32-2.368-4.256-4.405-1.785 1.171-4.252 2.078-6.762 3.002-2.121.778-4.393 1.667-6.211 2.705-.007.257-.007.518-.002.78.03 1.747.305 3.523.802 5.19zm-2.083.041c-.402-1.492-.643-3.063-.713-4.63-.976.855-1.566 1.8-1.538 2.845.46 1.041 1.256 1.817 2.251 1.785zm-3.77-7.166c.16.833.381 1.624.683 2.373 1.317-2.321 4.515-3.79 7.938-5.093.646-.246 1.298-.486 1.949-.725 2.788-1.026 5.519-2.03 7.041-3.295-.097-.097-.186-.199-.271-.309-.303-.389-.524-.839-.645-1.325-.497-.048-.978-.197-1.408-.435-.742-.415-1.343-1.09-1.647-1.956-.116-.332-.182-.671-.198-1.007l-.705.121c-1.363.231-2.762.468-4.116.767-4.517 1.003-8.524 2.703-8.936 7.215-.007.082-.025.164-.052.237.054 1.209.161 2.358.367 3.432zm20.209-21.706c-1.482-2.406-3.853-3.742-6.493-4.139-1.644-.248-3.388-.139-5.095.296-.271.07-.541.15-.81.235-1.966.631-3.843 1.701-5.402 3.162-3.311 3.105-5.185 8.021-3.444 14.336 1.92-3.02 5.675-4.302 9.656-5.133 1.256-.262 2.534-.478 3.785-.69.544-.092 1.083-.185 1.612-.276.145-.227.318-.435.512-.622-.208-.455-.316-.945-.326-1.441-.01-.847.274-1.706.866-2.4.6-.694 1.406-1.104 2.249-1.221.485-.068.986-.033 1.467.102.291-.406.66-.747 1.084-1 .111-.066.224-.126.339-.178.151-.071.306-.132.466-.179-.144-.299-.3-.581-.466-.852zm6.155 6.472c-.133-.379-.396-.676-.724-.856-.316-.178-.69-.244-1.062-.176-.106.029-.221.043-.34.034-.553-.036-.972-.516-.937-1.073.025-.398-.097-.777-.329-1.078-.228-.294-.561-.507-.956-.582-.4-.075-.792.005-1.11.196-.323.195-.579.501-.697.882-.028.087-.069.177-.128.259-.307.461-.931.583-1.394.278-.329-.225-.721-.305-1.099-.252-.37.049-.723.23-.984.537-.262.304-.39.684-.384 1.058.005.376.144.751.415 1.042v.001c.065.07.117.151.163.24.243.5.035 1.102-.463 1.345-.351.173-.618.472-.76.823l-.004-.001-.002.001c-.14.345-.16.745-.025 1.128.132.379.396.676.724.859.316.175.689.242 1.062.172.106-.027.219-.04.339-.034.554.04.974.518.936 1.074-.026.397.099.778.33 1.078.23.294.562.51.959.583.398.074.788-.003 1.107-.197.325-.193.578-.501.698-.88v.002c.029-.092.07-.179.125-.263.31-.461.934-.585 1.395-.274.331.221.723.301 1.101.25.369-.051.723-.231.984-.535.263-.308.39-.687.384-1.059-.007-.38-.148-.753-.415-1.044l.002-.002c-.067-.069-.12-.151-.163-.24-.247-.499-.038-1.1.459-1.344.354-.175.619-.472.763-.823.141-.35.166-.749.03-1.129zm1.293 5.153c-.095.641-.369 1.266-.823 1.797-.596.694-1.406 1.107-2.248 1.221-.486.067-.986.035-1.468-.101-.29.405-.66.746-1.086 1.001-.541.323-1.169.507-1.823.509-.155 0-.312-.007-.465-.027.126.322.283.621.465.901.801 1.253 2.057 2.149 3.241 2.995 1.425 1.015 2.764 1.972 3.418 3.335.307-.631.556-1.289.757-1.97.472-1.605.677-3.368.677-5.299 0-1.307-.211-2.833-.645-4.362zm-7.113-1.073c-1.203-.227-1.994-1.383-1.765-2.585.224-1.203 1.38-1.993 2.581-1.768 1.203.226 1.993 1.383 1.767 2.586-.224 1.201-1.382 1.993-2.583 1.767z"/>
</svg>
